<?xml version="1.0" encoding="utf-8"?>
<!-- Generator: Adobe Illustrator 17.1.0, SVG Export Plug-In . SVG Version: 6.00 Build 0)  -->
<!DOCTYPE svg PUBLIC "-//W3C//DTD SVG 1.1//EN" "http://www.w3.org/Graphics/SVG/1.1/DTD/svg11.dtd">
<svg version="1.1" id="Layer_1" xmlns="http://www.w3.org/2000/svg" xmlns:xlink="http://www.w3.org/1999/xlink" x="0px" y="0px"
	 viewBox="0 0 285.2 159.9" enable-background="new 0 0 285.2 159.9" xml:space="preserve">
<g>
	<path fill="#9900FF" d="M105.7,112.3c-13.2,0-23.8,10.7-23.8,23.8c0,13.1,10.6,23.8,23.8,23.8s23.8-10.7,23.8-23.8
		C129.5,123,118.9,112.3,105.7,112.3z M105.7,148c-6.6,0-11.9-5.4-11.9-11.9c0-6.6,5.3-11.9,11.9-11.9c6.6,0,11.9,5.3,11.9,11.9
		C117.6,142.7,112.3,148,105.7,148z M285.2,94.7v25.4c0,6.3-5.1,11.5-11.5,11.5h-12.3c-2.2-15.2-15.3-26.9-31.2-26.9
		c-15.8,0-28.9,11.7-31.2,26.9h-62.3c-2.2-15.2-15.3-26.9-31.2-26.9s-28.9,11.7-31.2,26.9H59.2c-6.3,0-11.5-5.1-11.5-11.5V94.7
		H285.2L285.2,94.7z M230.3,112.3c-13.2,0-23.8,10.7-23.8,23.8c0,13.1,10.7,23.8,23.8,23.8c13.1,0,23.8-10.7,23.8-23.8
		C254.1,123,243.4,112.3,230.3,112.3z M230.3,148c-6.6,0-11.9-5.4-11.9-11.9c0-6.6,5.3-11.9,11.9-11.9c6.5,0,11.9,5.3,11.9,11.9
		C242.2,142.7,236.9,148,230.3,148z M280.7,69.1l-45.1-44.6c-2.9-2.8-6.7-4.4-10.8-4.4h-22.8v-8.5c0-6.4-5.1-11.5-11.5-11.5L59.1,0
		c-6.3,0-11.5,5.1-11.5,11.5v1.8L1.1,18.7l82.6,10.8L0,37.7l83.3,11.8L0,56.8l47.7,9l0,22.6h237.6V80
		C285.2,75.9,283.6,72,280.7,69.1z M261,70.6h-43.7c-1,0-1.8-0.8-1.8-1.8V35.1c0-1,0.8-1.8,1.8-1.8h8.3c0.5,0,0.9,0.2,1.3,0.5
		l35.3,33.7C263.5,68.6,262.7,70.6,261,70.6z"/>
</g>
</svg>
