<?xml version="1.0" encoding="utf-8"?>
<!-- Generator: Adobe Illustrator 17.0.0, SVG Export Plug-In . SVG Version: 6.00 Build 0)  -->
<!DOCTYPE svg PUBLIC "-//W3C//DTD SVG 1.1//EN" "http://www.w3.org/Graphics/SVG/1.1/DTD/svg11.dtd">
<svg version="1.1" xmlns="http://www.w3.org/2000/svg" xmlns:xlink="http://www.w3.org/1999/xlink" x="0px" y="0px" width="614px"
	 height="418px" viewBox="0 0 614 418" enable-background="new 0 0 614 418" xml:space="preserve">
<g id="Layer_3" display="none">
	<rect display="inline" width="614" height="792"/>
</g>
<g id="Layer_1" display="none">
	
		<image display="inline" overflow="visible" width="1280" height="862" xlink:href="C:\Users\RUH\Desktop\IMG-20170721-WA0008.jpg"  transform="matrix(0.4594 0 0 0.4594 12 198.2594)">
	</image>
</g>
<g id="Layer_2">
	<polyline id="box" fill="none" stroke="#FFFFFF" stroke-width="5" stroke-linecap="round" stroke-miterlimit="10" points="
		376.455,248.51 376.455,371.29 573.549,371.29 573.549,168.998 373.477,168.998 	"/>
	
		<path id="wrap" fill="none" stroke="#FFFFFF" stroke-width="5" stroke-linecap="round" stroke-linejoin="round" stroke-miterlimit="10" d="
		M448.727,151.386c0,0-35.104-16.577-23.402-35.104c9.263-11.214,29.431,4.467,37.541,26.328
		c-6.361-13.213-4.518-44.861,15.959-44.855c16.089-0.007,16.707,26.815,13.19,42.538c8.393-28.887,29.032-38.313,39.382-28.142
		c10.94,11.931-7.587,34.359-20.751,39.234"/>
	
		<path id="F" fill="none" stroke="#FFFFFF" stroke-width="5" stroke-linecap="round" stroke-linejoin="round" stroke-miterlimit="10" d="
		M358.684,191.791h115.51c0,0,22.69,0.832,22.617,16.155c-0.068,14.26-10.413,17.525-22.617,18.579c-100.162,0-115.51,0-115.51,0
		v158.321c0,0,3.232,23.329-19.557,23.331c-11.946,0.001-18.408-9.599-18.408-23.331c0-68.66,0-374.801,0-374.801h250.7
		c0,0,31.747-0.48,31.747,19.925c0,22.349-24.268,20.373-31.747,20.463c-133.574,0-214.351,0-214.351,0L358.684,191.791z"/>
	<g>
		<g>
			<path fill="#FFF3F3" d="M421.762,315.142c0.253,2.079,0.379,3.119,0.632,5.198c-2.347,1.174-4.75,1.932-7.233,2.276
				c-6.166,0.855-11.713-0.394-16.836-3.814c-5.123-3.419-8.331-7.999-9.452-13.873c-1.098-5.755,0.248-11.126,4.238-16.042
				c3.989-4.916,9.407-7.904,16.078-8.83c2.904-0.403,5.703-0.4,8.375,0.003c0.258,2.127,0.388,3.191,0.646,5.318
				c-2.688-0.765-5.483-0.95-8.359-0.551c-5.079,0.705-9.174,2.995-12.187,6.793c-3.014,3.797-4.059,7.968-3.256,12.472
				c0.796,4.465,3.202,8,7.116,10.683c3.914,2.683,8.176,3.678,12.904,3.021c1.422-0.197,2.741-0.525,3.96-0.987
				C419.608,316.347,420.731,315.793,421.762,315.142z"/>
			<path fill="#FFF3F3" d="M425.071,307.604c-0.412-3.668,0.663-6.956,3.303-9.829c2.639-2.873,6.066-4.5,10.213-4.832
				c4.056-0.325,7.612,0.782,10.589,3.282c2.978,2.501,4.522,5.635,4.704,9.363c0.18,3.688-1.046,6.884-3.605,9.625
				c-2.559,2.741-5.717,4.243-9.542,4.549c-3.91,0.313-7.355-0.7-10.413-3.068C427.262,314.327,425.488,311.313,425.071,307.604z
				 M438.928,297.203c-2.753,0.22-5.039,1.313-6.825,3.257c-1.786,1.944-2.531,4.202-2.272,6.756c0.26,2.556,1.43,4.622,3.477,6.22
				c2.046,1.598,4.396,2.283,7.084,2.068c2.686-0.215,4.883-1.293,6.625-3.256c1.741-1.962,2.553-4.237,2.4-6.842
				c-0.145-2.483-1.236-4.533-3.306-6.128C444.043,297.683,441.636,296.986,438.928,297.203z"/>
			<path fill="#FFF3F3" d="M462.547,291.158c0.186,6.45,0.279,9.674,0.466,16.124c0.054,1.886,0.858,3.446,2.389,4.694
				c1.53,1.247,3.319,1.854,5.383,1.83c2.021-0.024,3.74-0.733,5.179-2.139c1.437-1.405,2.172-3.105,2.18-5.112
				c0.027-6.236,0.041-9.353,0.068-15.589c1.991,0.009,2.987,0.018,4.977,0.048c-0.106,7.102-0.159,10.652-0.265,17.754
				c-0.042,2.809-1.296,5.093-3.72,6.882c-2.425,1.789-5.199,2.692-8.365,2.73c-3.21,0.038-5.974-0.76-8.331-2.412
				c-2.526-1.769-3.871-4.06-3.982-6.908c-0.276-7.097-0.414-10.646-0.69-17.743C459.721,291.244,460.663,291.212,462.547,291.158z"
				/>
			<path fill="#FFF3F3" d="M493.685,306.587c-0.179,4.667-0.269,7.001-0.449,11.668c-1.827-0.07-2.74-0.101-4.567-0.152
				c0.123-4.356,0.184-6.534,0.307-10.89c0.015-0.521,0.027-0.972,0.038-1.354c0.011-0.381,0.019-0.692,0.026-0.932
				c0.085-3.009,0.415-5.177,1.001-6.504c0.585-1.327,1.486-2.514,2.709-3.555c1.495-1.272,3.055-2.144,4.669-2.613
				c1.613-0.469,3.529-0.646,5.74-0.519c-0.101,1.755-0.151,2.632-0.252,4.387c-1.665-0.096-3.09,0.053-4.269,0.438
				c-1.181,0.385-2.168,1.175-2.959,2.366c-0.792,1.192-1.298,2.236-1.529,3.131c-0.23,0.895-0.37,2.044-0.424,3.447
				C493.708,305.985,493.695,306.345,493.685,306.587z"/>
			<path fill="#FFF3F3" d="M505.682,285.374c0.052-0.841,0.432-1.542,1.146-2.099c0.713-0.558,1.568-0.803,2.559-0.734
				c0.946,0.066,1.737,0.424,2.366,1.075c0.63,0.651,0.911,1.397,0.847,2.237s-0.455,1.534-1.168,2.085
				c-0.713,0.551-1.535,0.793-2.469,0.728c-0.979-0.068-1.783-0.402-2.416-1.006C505.915,287.056,505.625,286.295,505.682,285.374z
				 M504.606,318.958c0.692-10.788,1.038-16.182,1.73-26.97c1.961,0.126,2.942,0.194,4.902,0.34
				c-0.804,10.78-1.207,16.17-2.011,26.95C507.38,319.141,506.455,319.077,504.606,318.958z"/>
			<path fill="#FFF3F3" d="M544.298,311.793c-8.217-1.242-12.337-1.769-20.591-2.635c-0.941-0.099-1.639-0.128-2.095-0.094
				c-0.457,0.036-0.748,0.295-0.884,0.759c-0.364,1.244,0.335,2.741,2.112,4.479c1.777,1.739,3.697,2.728,5.79,2.974
				c1.34,0.158,2.759,0.022,4.257-0.388c1.01-0.277,2.14-0.735,3.382-1.378c0.968,1.393,1.448,2.091,2.4,3.49
				c-1.765,1.049-3.469,1.769-5.123,2.161c-1.656,0.392-3.494,0.464-5.525,0.226c-3.815-0.449-6.911-2.128-9.358-5.081
				c-2.447-2.954-3.546-6.294-3.222-10.053c0.31-3.598,1.994-6.56,5.122-8.842c3.128-2.28,6.752-3.199,10.798-2.721
				c4.133,0.488,7.539,2.308,10.139,5.411c2.6,3.103,3.582,6.515,3.024,10.205C544.421,310.981,544.346,311.476,544.298,311.793z
				 M539.502,306.111c-0.319-1.688-1.1-3.395-2.622-4.728c-1.523-1.334-3.384-2.137-5.562-2.396
				c-2.135-0.254-4.278,0.213-6.401,1.401c-2.124,1.188-3.212,2.564-3.122,3.915c0.013,0.196,0.202,0.363,0.539,0.478
				c0.335,0.115,0.718,0.194,1.149,0.238c0.387,0.04,0.666,0.069,0.838,0.087c4.797,0.505,7.193,0.789,11.979,1.421
				c0.471,0.062,0.837,0.111,1.094,0.146c0.728,0.098,1.282,0.113,1.664,0.044C539.437,306.649,539.562,306.431,539.502,306.111z"/>
			<path fill="#FFF3F3" d="M553.14,312.792c-0.788,4.604-1.182,6.905-1.97,11.509c-1.808-0.31-2.713-0.46-4.523-0.75
				c0.691-4.303,1.036-6.454,1.728-10.757c0.083-0.514,0.154-0.96,0.215-1.337c0.06-0.376,0.11-0.683,0.148-0.921
				c0.477-2.972,1.089-5.078,1.845-6.317c0.755-1.239,1.806-2.298,3.159-3.169c1.654-1.065,3.319-1.724,4.986-1.977
				c1.666-0.253,3.596-0.177,5.78,0.24c-0.329,1.726-0.494,2.59-0.823,4.316c-1.645-0.314-3.082-0.354-4.306-0.128
				c-1.225,0.227-2.311,0.88-3.253,1.957c-0.944,1.078-1.584,2.047-1.93,2.903c-0.345,0.857-0.635,1.978-0.872,3.362
				C553.241,312.198,553.18,312.554,553.14,312.792z"/>
		</g>
	</g>
</g>
<g id="Layer_4">
	
		<line fill="none" stroke="#FFFFFF" stroke-width="5" stroke-linecap="round" stroke-linejoin="round" stroke-miterlimit="10" x1="298.102" y1="10.044" x2="6.5" y2="10.044"/>
	
		<line fill="none" stroke="#FFFFFF" stroke-width="5" stroke-linecap="round" stroke-linejoin="round" stroke-miterlimit="10" x1="298.102" y1="51.24" x2="59.005" y2="51.24"/>
	
		<line fill="none" stroke="#FFFFFF" stroke-width="5" stroke-linecap="round" stroke-linejoin="round" stroke-miterlimit="10" x1="298.102" y1="93.244" x2="92.123" y2="93.244"/>
	
		<line fill="none" stroke="#FFFFFF" stroke-width="5" stroke-linecap="round" stroke-linejoin="round" stroke-miterlimit="10" x1="298.102" y1="138.479" x2="126.049" y2="138.479"/>
	
		<line fill="none" stroke="#FFFFFF" stroke-width="5" stroke-linecap="round" stroke-linejoin="round" stroke-miterlimit="10" x1="298.102" y1="186.944" x2="152.301" y2="186.944"/>
</g>
</svg>
